<?xml version="1.0" encoding="UTF-8"?>
<!DOCTYPE svg PUBLIC "-//W3C//DTD SVG 1.1//EN" "http://www.w3.org/Graphics/SVG/1.1/DTD/svg11.dtd">
<!-- Creator: CorelDRAW 2018 (64 Bit) -->
<svg xmlns="http://www.w3.org/2000/svg" xml:space="preserve" width="48.2819mm" height="48.2532mm" version="1.1" style="shape-rendering:geometricPrecision; text-rendering:geometricPrecision; image-rendering:optimizeQuality; fill-rule:evenodd; clip-rule:evenodd"
viewBox="0 0 161257.74 161161.88"
 xmlns:xlink="http://www.w3.org/1999/xlink">
 <defs>
  <style type="text/css">
   <![CDATA[
    .fil3 {fill:black}
    .fil0 {fill:#4D4D4D}
    .fil2 {fill:white}
    .fil1 {fill:#949494;fill-rule:nonzero}
   ]]>
  </style>
 </defs>
 <g id="Capa_x0020_1">
  <metadata id="CorelCorpID_0Corel-Layer"/>
  <ellipse class="fil0" transform="matrix(-0.894124 -0.00919456 -0.0176359 0.93094 79273.7 79682.9)" rx="87241.75" ry="83555.48"/>
  <path class="fil1" d="M82151.04 3.67c-1248.46,-13.03 -2608.48,11.02 -4066.69,67.47 -6099.03,240.14 -12032.73,1159.62 -17719.95,2680.29 -5691.56,1522 -11148.32,3653.87 -16291.47,6317.13 -25672.3,13296.23 -43474.75,39881.33 -44056.9,70684.42 -26.05,1365.69 -19.37,2685.96 17.37,3955.13 612.21,20718.87 9081.58,39461.17 22572.19,53315.16 13454.54,13816.92 31917.29,22781.94 52556.67,23990.65 1421.14,82.83 2738.07,131.93 3944.45,144.28 1281.86,13.36 2661.92,-10.69 4137.83,-70.14 6098.03,-244.48 12030.73,-1168.64 17713.94,-2692.64 5673.86,-1523.34 11126.28,-3656.21 16273.77,-6327.48 25648.26,-13302.91 43428.33,-39873.98 44009.47,-70657.03 25.38,-1345.32 19.71,-2647.89 -16.37,-3900.36 -597.51,-20740.91 -9069.56,-39505.59 -22573.53,-53371.94 -13467.9,-13829.28 -31950.35,-22797.97 -52612.11,-23994.66 -1405.44,-80.16 -2705.34,-128.25 -3888.67,-140.28zm-3938.77 5630.77c1158.95,-44.75 2440.48,-61.79 3841.91,-47.43 1350,14.03 2572.74,53.1 3664.9,115.9 19367.2,1121.55 36678.01,9514.43 49279.87,22454.62 12564.78,12901.78 20449,30329.16 21002.09,49560.76 35.07,1245.79 42.42,2462.19 20.71,3639.18 -539.73,28593.06 -17119.77,53306.81 -41036.28,65712.95 -4800.47,2490.25 -9914.22,4488.19 -15264.78,5924.35 -5340.87,1432.83 -10908.85,2300.2 -16625.13,2529.66 -1182.33,48.09 -2484.57,64.79 -3892.01,50.43 -1365.69,-14.03 -2606.47,-54.77 -3720.67,-119.9 -19344.82,-1132.57 -36634.93,-9522.78 -49224.43,-22450.62 -12553.43,-12890.43 -20432.64,-30295.42 -21001.09,-49503.98 -35.74,-1262.16 -43.42,-2498.6 -21.71,-3693.62 541.07,-28612.1 17142.48,-53341.21 41084.04,-65740.34 4809.82,-2491.58 9922.57,-4487.18 15261.44,-5914.33 5342.87,-1428.48 10911.86,-2292.52 16631.14,-2517.63z"/>
  <path class="fil2" d="M77904.66 21541.82c2921.43,-797.24 1651.26,-1384.4 4149.52,-1384.4 2794.51,0 2921.76,2852.63 4573.02,4404.69l3302.85 1510.31c1566.76,881.07 1355.01,1216.4 1778.17,3062.37 3726.35,-964.9 2540.68,-3146.21 6224.61,-4153.19 2159.59,1426.48 4446.1,5957.08 5928.03,8642.05 1143.26,2097.47 -931.5,1552.06 2371.01,2433.13l0 7299.4c254.17,2013.64 -1185.34,3188.29 -2667.6,4446.77 -1355.01,1216.4 -1312.59,1510.31 -1355.01,2936.46 169.67,1636.23 847,1887.72 2964.18,1887.72 1439.51,-251.5 3133.18,-3691.61 3133.18,-7592.98 3683.93,-1384.4 2202.01,3565.7 5589.36,-3355.95 2159.59,-3188.29 3006.26,796.91 5165.86,-1174.65 338.67,-293.91 254.17,-2642.88 1312.59,-3440.12 2455.84,-1720.06 3810.85,-1887.72 6647.78,-3775.45 2286.51,-1510.31 4446.1,-2894.71 7494.78,-3607.78 3895.68,4446.77 1228.09,5957.08 2540.68,12668.99l1185.67 3733.7c804.25,2475.22 -1397.42,5663.5 -1566.76,7970.72 1566.76,335.66 1608.84,503.33 3472.18,671.32 0,5369.59 -127.25,3439.78 -1397.42,6921.65 -931.5,2684.96 381.09,2559.05 -1397.42,6208.91 508.34,0 1566.76,-42.08 2032.68,83.83 4615.1,1258.48 -296.58,8390.22 -1312.59,10991.01 -847,2181.64 211.42,503.33 -1609.17,2601.13 -3006.26,3481.87 677.34,7089.65 -6690.2,7089.65 -1863.01,0 -1905.43,-335.66 -3472.18,-713.07 -550.42,2600.8 -634.92,1677.98 677.67,4152.86 3175.6,-251.5 5546.94,-2600.8 8807.37,-1803.89 3218.01,838.99 1481.92,881.07 1905.43,1803.89 677.34,1510.31 -1101.17,419.49 931.5,1594.14 1058.42,629.24 6224.28,1720.06 9103.62,3272.12 -423.5,5034.26 -4742.35,5957.08 -6182.19,10236.19 -42.08,83.83 -84.5,293.58 -126.92,377.41 0,84.17 -42.42,293.91 -42.42,377.75 -169.33,1761.81 254.17,2307.22 -1312.59,3481.87 -2413.43,1761.81 -2455.84,3188.29 -6139.78,3481.87 889.42,3440.12 1355.01,545.41 1355.01,5537.59 -1651.26,377.41 -3048.68,419.49 -4742.35,796.91 -3599.1,838.99 -847,1048.74 -3810.85,1720.06 -4318.85,1006.99 -1397.42,-1761.81 -3726.02,503.33 -1947.84,1888.06 -169.67,5453.76 -5504.86,3817.53 -2159.26,-670.99 -1566.42,-713.07 -4361.27,-1258.48 -6562.95,-1342.31 -4149.52,-6334.49 -7579.28,-2810.54 -1566.76,-3649.87 -677.67,-5495.51 -635.25,-8222.55 42.42,-1006.65 1355.01,-4698.27 -2371.01,-4698.27 -2710.01,0 -2202.01,2894.38 -3641.52,2768.79 2159.26,9313.04 2752.1,7970.39 9230.54,14472.88 2710.01,2726.71 6097.36,5076.01 9654.38,6963.74l11982.97 5327.84c-1439.51,2726.71 -3810.85,5915 -7621.7,6208.58 -2540.68,-5285.76 -2921.76,-5663.17 -7918.29,-9396.87 -5758.36,-4279.11 -9654.04,-7635.06 -13041.39,-12627.24 -2964.18,-4404.69 -3260.43,-6586.32 -5081.36,-10948.93 -2455.84,-1300.57 -4488.19,-1090.82 -5377.27,-629.58 -1355.01,671.32 -2117.18,2684.96 -254.17,6040.92 2455.84,4362.94 8722.54,4027.28 8849.79,10278.27 -3895.68,922.82 -2117.18,335.33 -2794.85,2726.71l-1524.34 4027.28c-2117.18,4614.44 -4276.44,8054.55 -8807.37,4992.18 -1397.09,2055.39 -3810.85,3817.53 -5885.61,5201.93l-1736.09 1048.74 -2667.6 -2223.39c-3260.43,1006.65 -5673.86,2559.05 -9781.29,2894.38 -1947.51,-3691.61 -84.5,-2516.96 -3895.35,-3733.36 -5377.61,-1678.31 -13465.23,2726.71 -10289.3,-7005.82 1143.26,-3566.03 508,-713.41 465.59,-3859.61 -84.5,-14011.64 10755.21,-6544.24 10966.97,-15815.53 -9103.62,-2139.22 -11305.63,6208.91 -21468.01,6208.91 -4107.1,0 -2159.26,-1636.23 -5716.28,-2559.05 -2582.76,-713.07 -5335.19,0 -5335.19,-2978.54 0,-3817.53 2710.01,-3733.7 1355.01,-4950.1 -2159.59,-2013.64 -2963.85,1468.23 -5885.61,-2265.47 -1736.09,-2265.47 1397.42,0 -1905.43,-2223.39 -1100.84,-713.07 -1736.09,-671.32 -2710.01,-1510.31 -2371.01,-2013.64 -1693.67,-3188.29 -550.42,-4950.1 -2032.34,-1090.82 -2074.76,-1468.23 -2879.35,-3355.95 -1016.34,-2475.22 -4699.94,-2768.79 -4699.94,-5621.42 0,-3901.7 1947.84,-1174.65 -508.34,-4362.94 -634.92,-797.24 -1651.26,-1384.4 -1863.01,-2768.79 -126.92,-881.07 126.92,-922.82 169.33,-1258.48 423.5,-3272.12 -2667.6,-3356.29 -2667.6,-13759.81 0,-5160.18 12491.31,41.75 13846.31,713.07 0,-8557.88 5292.77,-3355.95 6224.28,671.32 2159.59,-755.16 889.09,-1384.4 3472.18,-2055.72 2074.76,3901.36 1355.01,12920.82 8299.04,8306.38 -381.09,-4237.02 -13210.72,-10194.11 -3471.85,-12459.58l0 -1384.4c-2625.51,-713.07 -8002.79,-4824.18 -2752.43,-6250.66 -1481.92,-5453.42 -6520.86,-8264.3 2074.76,-8264.3l0 -4866.27 6901.95 0c-3175.6,-4698.6 -3472.18,-2349.3 -3472.18,-10361.77 2710.01,-587.49 804.59,-587.49 3472.18,0 0,-3985.53 677.34,-5244.01 677.34,-9690.78 1270.51,-629.24 889.42,-545.41 2794.85,-671.32 -677.67,-2810.54 -1905.43,-5915 2074.76,-6250.66 126.92,-6460.41 2582.76,-11326.67 8976.71,-6921.65 4276.44,2936.46 5631.44,419.49 9103.62,3398.04 3260.43,2768.79 3133.51,-168 5801.11,1719.73 1989.93,1426.48 126.92,419.49 1608.84,1888.06 2879.35,2852.63 2540.68,-335.66 3557.02,3398.04z"/>
  <path class="fil3" d="M87406.07 91799.4c-710.74,-94.52 -1155.28,-123.91 -1908.76,-481.28 3899.02,3881.66 6315.12,8515.46 9318.05,14404.75 1359.35,-1909.43 -3306.52,-11091.88 -3675.25,-14567.07 -1657.27,-8979.71 -2520.97,-20355.48 -2997.91,-29644.81 2341.62,-3847.92 4687.58,-5170.87 4438.09,-5192.24 -842.66,-71.81 -2087.12,171.34 -3111.8,1113.86 -2959.5,2723.04 -7163.13,6851.18 -8400.9,8545.86 -5384.62,-4553.98 -6586.99,-5600.05 -9306.69,-8183.81 -1147.6,-659.3 -2842.27,-1600.49 -4302.82,-1475.91 -249.49,21.38 2096.47,1344.32 4438.09,5192.24 -476.94,9289.32 -1340.64,20665.09 -2997.91,29644.81 -368.73,3475.19 -5034.6,12657.63 -3675.25,14567.07 3002.92,-5889.28 5419.02,-10523.09 9318.05,-14404.75 -753.49,357.37 -1198.03,386.76 -1908.76,481.28 -451.89,-6964.4 1146.93,-18312.12 1462.89,-27963.16 1886.72,2133.54 2799.86,2846.61 4686.24,5128.45 -218.76,456.23 -765.51,1134.91 -1016,1673.3 1520.67,778.2 2763.45,1171.64 3651.2,-317.96 1794.21,-2479.56 2673.94,-4605.42 4431.41,-6370.23 315.96,9651.04 2009.96,20885.19 1558.07,27849.6z"/>
  <path class="fil3" d="M39366.98 89453.78c-1826.94,1776.17 -1915.78,9944.95 -2113.84,9792.98 -363.38,-509.67 -582.82,-6887.25 -158.65,-9254.59 197.39,-1340.98 648.61,-3184.28 1596.48,-5304.8 1178.32,-2172.95 1582.12,-3571.38 3119.49,-3587.08 -1299.23,8205.18 1083.47,15297.17 3583.4,17569.99 3515.6,3051.02 7267,3447.8 10993.35,1694.01 3085.09,-1451.86 4685.24,-4124.47 5214.62,-6697.54 624.57,-3037.66 -252.5,-6101.7 -2097.8,-9220.19 -2035.68,-3620.14 -7434.33,-8499.1 -11483.98,-10860.76 -1108.85,-816.61 -2029.67,-1833.62 -2730.05,-2921.76 -990.29,-1538.7 -1344.32,-3458.82 -1368.7,-4920.04 102.2,-1485.6 300.26,-2938.13 1111.53,-4475.16 630.58,-1194.36 1593.14,-2355.31 2353.31,-2885.02 2114.17,-1867.68 5995.16,-3157.23 10485.01,-1249.46 2225.39,1434.5 1744.11,1441.51 2553.37,2478.89 132.93,-569.46 326.98,-2444.15 1369.03,-2019.98 -460.58,1543.04 -1021.35,6762.34 -567.79,10603.25 162.99,27.39 -1130.9,-1799.88 -1336.97,-2596.79 -255.84,-594.17 -351.03,-1606.5 -951.88,-2845.28 -704.39,-1451.86 -2760.44,-2817.22 -4335.22,-3097.78 -2038.35,-363.05 -4542.29,607.53 -5632.44,1779.18 -1500.96,1613.85 -2493.59,4311.84 -1009.66,7217.9 856.69,1755.46 2811.21,2847.95 5652.82,4678.23 8399.23,6740.63 10006.07,10556.82 10918.87,14267.81 906.45,3686.6 1016.67,5722.29 247.15,7979.07 -640.6,1878.04 -1865.68,4035.63 -3496.56,5810.46 -1846.98,1944.5 -5108.74,3486.54 -8105.99,3629.16 -2637.87,125.58 -5130.12,-620.89 -7250.3,-1566.09 -2054.39,-916.14 -3909.71,-2959.5 -5216.29,-5237 -1780.85,-3103.45 -1677.64,-6361.55 -1342.31,-8761.62z"/>
  <path class="fil3" d="M121387.43 89453.78c1826.94,1776.17 1915.78,9944.95 2113.84,9792.98 363.38,-509.67 582.82,-6887.25 158.65,-9254.59 -197.39,-1340.98 -648.61,-3184.28 -1596.48,-5304.8 -1178.32,-2172.95 -1582.12,-3571.38 -3119.49,-3587.08 1299.23,8205.18 -1083.47,15297.17 -3583.4,17569.99 -3515.6,3051.02 -7267,3447.8 -10993.35,1694.01 -3085.09,-1451.86 -4685.24,-4124.47 -5214.62,-6697.54 -624.57,-3037.66 252.5,-6101.7 2097.8,-9220.19 2035.68,-3620.14 7434.33,-8499.1 11483.98,-10860.76 1108.85,-816.61 2029.67,-1833.62 2730.05,-2921.76 990.29,-1538.7 1344.32,-3458.82 1368.7,-4920.04 -102.2,-1485.6 -300.26,-2938.13 -1111.53,-4475.16 -630.58,-1194.36 -1593.14,-2355.31 -2353.31,-2885.02 -2114.17,-1867.68 -5995.16,-3157.23 -10485.01,-1249.46 -2225.39,1434.5 -1744.11,1441.51 -2553.37,2478.89 -132.93,-569.46 -326.98,-2444.15 -1369.03,-2019.98 460.58,1543.04 1021.35,6762.34 567.79,10603.25 -162.99,27.39 1130.9,-1799.88 1336.97,-2596.79 255.84,-594.17 351.03,-1606.5 951.88,-2845.28 704.39,-1451.86 2760.44,-2817.22 4335.22,-3097.78 2038.35,-363.05 4542.29,607.53 5632.44,1779.18 1500.96,1613.85 2493.59,4311.84 1009.66,7217.9 -856.69,1755.46 -2811.21,2847.95 -5652.82,4678.23 -8399.23,6740.63 -10006.07,10556.82 -10918.87,14267.81 -906.45,3686.6 -1016.67,5722.29 -247.15,7979.07 640.6,1878.04 1865.68,4035.63 3496.56,5810.46 1846.98,1944.5 5108.74,3486.54 8105.99,3629.16 2637.87,125.58 5130.12,-620.89 7250.3,-1566.09 2054.39,-916.14 3909.71,-2959.5 5216.29,-5237 1780.85,-3103.45 1677.64,-6361.55 1342.31,-8761.62z"/>
 </g>
</svg>
